<svg width="50" height="50" viewBox="0 0 50 50" fill="none" xmlns="http://www.w3.org/2000/svg">
<path fill-rule="evenodd" clip-rule="evenodd" d="M44.8485 4.80516C41.7267 1.60172 37.7516 0 32.9561 0H13.2744V12.5849V19.2998C17.5669 20.6845 20.6771 24.7647 20.6771 29.5827C20.6771 34.4008 17.5669 38.481 13.2744 39.8657V46.9892H23.9762V33.9629H32.9721C37.7679 33.9629 41.7427 32.3614 44.8648 29.1577C47.9867 25.9544 49.5639 21.9011 49.5639 16.9815C49.5639 12.0619 47.9867 8.00858 44.8485 4.80516ZM36.6251 22.8326C35.2413 24.3527 33.471 25.1208 31.2985 25.1208H23.9601V8.87484H31.2985C33.4549 8.87484 35.225 9.64299 36.6251 11.163C38.0093 12.683 38.7012 14.6279 38.7012 16.9978C38.7172 19.3677 38.0093 21.3127 36.6251 22.8326Z" fill="white" />
<path d="M7.75425 37.5388C12.0368 37.5388 15.5085 34.0131 15.5085 29.6636C15.5085 25.3142 12.0368 21.7883 7.75425 21.7883C3.47171 21.7883 0 25.3142 0 29.6636C0 34.0131 3.47171 37.5388 7.75425 37.5388Z" fill="#F35165"/>
</svg>
