<svg width="32" height="32" viewBox="0 0 24 24" fill="none" xmlns="http://www.w3.org/2000/svg"><path d="M21.412 10.965v.371a12.937 12.937 0 01-1.423 5.502 12.786 12.786 0 01-4.056 3.977l-.315.185-.563-.32-3.183-1.84a5.42 5.42 0 01-.563-.365 3.883 3.883 0 01-.45-.355 6.051 6.051 0 01-.889-.934 6.373 6.373 0 01-.883-1.563 7.408 7.408 0 01-.512-3.128c.313-.17.663-.259 1.019-.258h.258a6.3 6.3 0 00.35 2.745 5.248 5.248 0 002.311 2.773l3.094 1.783.236-.163a11.03 11.03 0 003.071-3.167 11.3 11.3 0 001.232-4.5l-1.31-.76c.106-.436.176-.88.208-1.327l2.368 1.344z" fill="#3880FF"/><path d="M17.789 4.688v4.33a6.8 6.8 0 01-.034.67c0 .191-.045.383-.079.563a6.62 6.62 0 01-.371 1.232 6.365 6.365 0 01-.906 1.558 7.385 7.385 0 01-2.447 2.008 2.099 2.099 0 01-.843-.985 6.232 6.232 0 002.182-1.687 5.248 5.248 0 001.243-3.375v-3.55l-.258-.123a11.014 11.014 0 00-4.281-1.075A11.194 11.194 0 007.45 5.453v1.513c-.43.124-.85.284-1.254.478V4.688l.315-.18A12.859 12.859 0 0111.995 3c1.915.09 3.786.609 5.473 1.519l.32.168z" fill="#3880FF"/><path d="M6.96 9.885l-3.093 1.783v.276c.108 1.485.52 2.933 1.21 4.252a11.277 11.277 0 003.296 3.342l1.327-.76c.325.31.675.592 1.046.844L8.373 21l-.321-.186a12.841 12.841 0 01-4.044-3.982 12.847 12.847 0 01-1.418-5.507v-.365l.563-.327L6.325 8.8a6.612 6.612 0 011.13-.518 6.075 6.075 0 011.255-.298 6.885 6.885 0 011.8 0 7.505 7.505 0 012.959 1.125c-.01.431-.147.85-.394 1.204a6.311 6.311 0 00-2.531-1.063 5.265 5.265 0 00-3.583.635z" fill="#3880FF"/></svg>