<svg width="32" height="32" viewBox="0 0 24 24" fill="none" xmlns="http://www.w3.org/2000/svg"><path d="M4.5 2.625c0-.207.168-.375.375-.375a6 6 0 016 6v5.25a.375.375 0 01-.375.375H4.875A.375.375 0 014.5 13.5V2.625z" fill="#182A71"/><path d="M12.375 7.406c0-.155.126-.281.281-.281a6.469 6.469 0 016.469 6.469.281.281 0 01-.281.281h-3.469a3 3 0 01-3-3V7.406z" fill="#3485C4"/><path fill-rule="evenodd" clip-rule="evenodd" d="M19.363 15.41A.36.36 0 0019 15H4.903a.36.36 0 00-.362.41 7.502 7.502 0 0014.822 0z" fill="#AFD8F7"/></svg>