<svg width="32" height="32" viewBox="0 0 24 24" fill="none" xmlns="http://www.w3.org/2000/svg"><path d="M19.02 17.236l-.962.235-.198.151-8.476-1.14H4.37l1.79-4.43 2.911.017.705 1.279 2.325 2.413-.301-1.502 2.075.368 3.985 2.995-3.15-2.995-.517-1.43-1.819-4.43s-1.398-2.475-1.427-2.503c.04.005 3.246-.012 3.246-.012l.586 2.38 1.29 4.565.353 1.235 1.25 1.447-1.017-1.553.665-.28.318 1.408.029.425 1.352 1.357z" fill="#F58C25"/><path d="M9.071 12.068l-2.91-.017-.694-.732.438-.29-.784-.42.67-.178-.92-.57.55-.234.137-.85 1.53-2.804 2.068-1.784 1.785 2.073 1.433 2.498-3.303 3.308z" fill="#81491F"/><path d="M4.37 16.482h5.02l1.37 1.8s-3.41 1.01-5.122 1.525L4.37 16.482z" fill="#E48027"/><path d="M17.866 8.889l.403.458-.295.347.409.29-.296.386.069.609-.506.592-2.871-2.939 4.576-3.726-1.49 3.983z" fill="#81491F"/><path d="M17.86 17.622l.017 1.112-1.631.81-5.491-1.257s-.04.028 0 0c2.302-.218 7.105-.665 7.105-.665z" fill="#D9C6B7"/><path d="M19.355 4.906l-4.576 3.726-.586-2.38 5.162-1.346z" fill="#E48027"/><path d="M14.779 8.632l2.865 2.939-.12 1.525-1.454.1-1.291-4.564z" fill="#E57F24"/><path d="M10.755 18.28l5.49 1.258 1.632-.81 1.12-.095-.853 1.095-2.313.206-5.076-1.653z" fill="#C7B7AB"/><path d="M10.754 18.282l-1.365-1.8 2.712-.72-1.347 2.52z" fill="#D76F21"/><path d="M18.997 18.633a84.55 84.55 0 01-1.12.096l-.017-1.113.198-.15.961-.23s.324.224.603.38c-.221.358-.427.687-.625 1.017z" fill="#2A2626"/><path d="M16.069 13.197l1.455-.1-.199.95-.55-.649-.12.928 1.017 1.553-1.25-1.453-.353-1.23z" fill="#D66F21"/><path d="M9.071 12.068l3.303-3.307 1.82 4.436-4.417.15-.706-1.279z" fill="#E47E25"/><path d="M10.755 18.282l1.347-2.52 5.758 1.86-7.105.66z" fill="#E47F26"/><path d="M9.777 13.348l4.416-.151-.318 1.43-.744-1.128-1.33.76-2.024-.911z" fill="#D66F21"/><path d="M13.875 14.628l.318-1.431.517 1.43 3.15 2.995s-3.076-2.307-3.985-2.994z" fill="#E47F25"/><path d="M13.875 14.627L11.8 14.26l1.33-.76.745 1.128z" fill="#32404E"/><path d="M11.8 14.258l.302 1.503-2.325-2.413 2.024.911z" fill="#E57F25"/><path d="M16.655 14.326l.12-.928.55.648-.67.28z" fill="#38424D"/><path d="M17.326 14.046l.198-.95.21 1.012-.09 1.346-.318-1.408z" fill="#E57F24"/><defs><clipPath id="clip0_239_7"><path fill="#fff" transform="translate(4.125 4.125)" d="M0 0h15.75v16.125H0z"/></clipPath></defs></svg>