<svg width="32" height="32" viewBox="0 0 24 24" fill="none" xmlns="http://www.w3.org/2000/svg"><path fill-rule="evenodd" clip-rule="evenodd" d="M12 21a9 9 0 100-18 9 9 0 000 18zM10.888 9.3a4.02 4.02 0 011.715 0c.496.123.95.365 1.32.704.37.338.58.755.73 1.223.055.175.085.34.094.504H11.13l5.458 2.521a4.12 4.12 0 00.48-1.01l.003.002.01-.044a2.52 2.52 0 00.035-.124l-.007-.005c.169-.826.217-1.73-.038-2.526-.272-.853-.865-1.896-1.54-2.512-.674-.617-1.384-.953-2.288-1.177-.904-.223-2.619-.058-3.522.168l1.166 2.277zm.913 5.645c-.232.01-.409.019-.54-.014a2.861 2.861 0 01-1.32-.702c-.37-.338-.662-.649-.792-1.321-.131-.673-.11-1.036 0-1.513L7.08 10.386c-.028.122-.058.243-.089.366-.188.75-.39 1.551-.087 2.996.273.853.656 1.563 1.33 2.18.675.617 1.288.958 2.192 1.182 1.369.237 2.289.168 3.169-.168l-1.233-2.01a9.111 9.111 0 00-.562.013z" fill="#1896A4"/></svg>