<svg fill="none" height="32" viewBox="0 0 24 24" width="32" xmlns="http://www.w3.org/2000/svg"><linearGradient id="a" gradientUnits="userSpaceOnUse" x1="12" x2="12" y1="4" y2="20"><stop offset="0" stop-color="#534bb1"/><stop offset="1" stop-color="#551bf9"/></linearGradient><linearGradient id="b" gradientUnits="userSpaceOnUse" x1="12" x2="12" y1="7" y2="17"><stop offset="0" stop-color="#fff"/><stop offset="1" stop-color="#fff" stop-opacity=".82"/></linearGradient><path d="M12 20a8 8 0 100-16 8 8 0 000 16z" fill="url(#a)"/><path d="M17.294 11.931H15.95C15.95 9.208 13.723 7 10.976 7c-2.714 0-4.92 2.154-4.974 4.83C5.945 14.597 8.564 17 11.356 17h.352c2.461 0 5.76-1.91 6.276-4.237.095-.429-.247-.832-.69-.832zm-8.316.121c0 .365-.3.662-.668.662a.667.667 0 01-.668-.662v-1.07a.668.668 0 011.336-.001zm2.32 0c0 .365-.3.662-.668.662s-.668-.298-.668-.662v-1.07c0-.365.3-.663.668-.663.368 0 .668.298.668.662z" fill="url(#b)"/></svg>