<svg width="40" height="40" fill="none" xmlns="http://www.w3.org/2000/svg"><path opacity=".1" d="M20 40C8.954 40 0 31.046 0 20 0 8.955 8.954 0 20 0s20 8.955 20 20c0 11.046-8.954 20-20 20z" fill="#8247E5"/><path d="M25.729 16.11c-.415-.253-.955-.253-1.411 0l-3.239 1.945-2.2 1.269-3.238 1.945c-.415.253-.954.253-1.411 0l-2.574-1.522a1.463 1.463 0 01-.706-1.227v-3.002c0-.507.25-.972.706-1.226l2.532-1.48c.415-.254.955-.254 1.412 0l2.532 1.48c.415.254.706.719.706 1.226v1.945l2.2-1.31v-1.946c0-.507-.249-.972-.706-1.226l-4.69-2.79c-.416-.254-.955-.254-1.412 0l-4.774 2.79a1.375 1.375 0 00-.706 1.226v5.624c0 .508.25.973.706 1.226l4.774 2.791c.415.254.955.254 1.411 0l3.238-1.903 2.2-1.31 3.239-1.903c.415-.254.954-.254 1.411 0l2.532 1.48c.415.253.706.718.706 1.226v3.002c0 .507-.25.973-.706 1.226l-2.532 1.522c-.415.254-.955.254-1.411 0l-2.533-1.48a1.463 1.463 0 01-.706-1.226v-1.945l-2.2 1.311v1.945c0 .507.25.973.706 1.226l4.774 2.791c.415.254.955.254 1.411 0l4.774-2.79c.416-.254.706-.72.706-1.227V20.17c0-.507-.249-.972-.706-1.226L25.73 16.11z" fill="#8247E5"/></svg>