<svg width="32" height="32" viewBox="0 0 24 24" fill="none" xmlns="http://www.w3.org/2000/svg"><path d="M6.18 13.44l.433-.19 5.39-2.343 5.824 2.534-2.187 4.517-5.35.757-4.023-4.342-.088-.932z" fill="#133444"/><path d="M16.616 10.652A5.988 5.988 0 0012.8 8.541l-.096-.012a5.896 5.896 0 00-1.402 0l-.096.012a5.978 5.978 0 00-3.816 2.111l-.243.402-.402.67-.295.49c-.004.011-.012.027-.016.04l-.004.007.653.387 4.123 2.442.797.47V9.724l-.797.362v-.872l.797-.362.797.362 4.059 1.844-.243-.406z" fill="#C42370"/><path d="M18.006 14.89c0 1.944-.924 3.76-2.354 4.932a5.99 5.99 0 01-1.896 1.052 5.562 5.562 0 01-1.749.282C8.689 21.156 6 18.21 6 14.891c0-.49.06-.976.175-1.454l5.828 3.45 5.824-3.447c.12.475.179.965.179 1.45z" fill="#1C4D6B"/><path d="M11.302 8.533l.701.319-.797.362V8.49l.096.044zm-.096 1.553l.797-.362v5.84l-.797-.475v-5.003z" fill="#000"/><path d="M12.003 9.724v5.84l5.58-3.303-5.58-2.537z" fill="#1D4259"/><path d="M12.003 3v6.724l5.58 2.537L12.004 3z" fill="#4B6B9A"/><path d="M12.003 9.724v5.836l-.796-.47-4.78-2.829-.009-.004.012-.003.016-.04.697-1.16 4.064-1.84v.877l.796-.367z" fill="#343535"/><path d="M12.003 9.724v5.84l-.797-.475-4.78-2.824-.004-.004.008-.004 4.776-2.17.797-.363z" fill="#3E5578"/><path d="M12.003 3v6.724l-5.58 2.537L12.002 3z" fill="#6DB2D8"/><path d="M9.744 20.678zm.251.104zm.478.163c.068.02.132.036.2.052-.064-.016-.132-.036-.2-.052z" fill="#335F8A"/><path d="M6.18 13.44l5.823 3.446a6.8 6.8 0 01-.418 1.53c-.466 1.127-1.406 2.318-3.23 1.41C6.92 18.655 6 16.834 6 14.89c0-.486.06-.976.18-1.45z" fill="#6DB2D8"/><path d="M15.648 19.826l-.016.012-.092.071-.008.008c-.032.028-.068.052-.1.076a1.013 1.013 0 01-.111.08c-.04.024-.076.052-.111.08-.036.027-.068.043-.1.067l-.02.012c-.036.024-.072.044-.104.068-.004.004-.008.004-.011.008a1.516 1.516 0 01-.108.064c-.036.02-.08.047-.12.067a1.71 1.71 0 01-.12.064l-.003.004-.12.06-.123.06c-.044.02-.084.04-.123.055-.084.036-.168.072-.251.104a4.926 4.926 0 01-.26.091c-.035.012-.067.024-.103.032l-.116.036c-.067.02-.13.036-.199.052-.024.008-.051.012-.075.02l-.044.008-.108.024-.1.02a.907.907 0 01-.09.015l-.1.016c-.016.004-.032.004-.048.008l-.076.008-.044.004a.597.597 0 01-.084.008c-.035.004-.067.008-.103.008-.028 0-.052.004-.08.008-.028 0-.048.004-.071.004h-.004c-.028 0-.056.004-.08.004-.036 0-.076.004-.112.004h-.231c-.04 0-.075 0-.111-.004-.028 0-.056-.004-.084-.004h-.004c-.024 0-.048-.004-.072-.004a.597.597 0 01-.08-.008c-.035-.004-.067-.004-.103-.008-.028-.004-.056-.004-.083-.008l-.04-.004a.486.486 0 00-.076-.008.2.2 0 01-.048-.008c-.032-.004-.067-.008-.1-.016-.031-.003-.059-.011-.09-.015-.033-.004-.065-.012-.1-.02l-.108-.024-.044-.008a.54.54 0 01-.075-.02c-.068-.016-.132-.036-.2-.052l-.12-.036c-.035-.012-.067-.02-.103-.032-.087-.027-.171-.06-.259-.091a3.647 3.647 0 01-.25-.104c-.04-.02-.084-.036-.124-.056l-.124-.06-.12-.06-.003-.003c-.04-.02-.08-.044-.12-.064-.04-.02-.08-.044-.12-.067-.039-.024-.07-.044-.107-.064L9 20.3a.925.925 0 01-.103-.068l-.02-.012a1.464 1.464 0 01-.1-.068c-.032-.024-.075-.051-.111-.08-.036-.027-.072-.051-.112-.079a7.437 7.437 0 00-.1-.076l-.007-.008c-.032-.023-.06-.047-.092-.071l-.016-.012c1.82.908 2.765-.287 3.23-1.41.2-.49.34-1.004.419-1.53a6.8 6.8 0 00.418 1.53c.482 1.123 1.422 2.314 3.243 1.41z" fill="#529BBA"/><path d="M13.33 20.997c.067-.016.135-.036.198-.052a2.88 2.88 0 01-.199.052zm.422-.119c.087-.028.171-.06.259-.092-.084.032-.172.06-.26.091zm.258-.096c.084-.032.168-.068.252-.104-.08.04-.168.072-.251.104z" fill="#335F8A"/><path d="M18.006 14.89c0 1.944-.924 3.76-2.354 4.936-1.82.908-2.765-.287-3.23-1.41a6.743 6.743 0 01-.42-1.53l5.825-3.446c.12.475.179.964.179 1.45z" fill="#4B6B9A"/></svg>