<svg width="32" height="32" viewBox="0 0 24 24" fill="none" xmlns="http://www.w3.org/2000/svg"><path d="M7.945 8.965l-1.24-4.924h8.652l1.181 4.924h-2.45l2.456 9.83h-1.222L12.546 7.709l-.5.508 2.665 10.58H12.87l-.64-2.425h-1.507l-.635-2.481h1.541l-1.24-4.925H7.945z" fill="url(#paint0_linear_1821_1819)"/><path d="M12.23 16.36l-1.218 1.206.629 2.43 1.238-1.2-.649-2.437z" fill="url(#paint1_linear_1821_1819)"/><path d="M14.395 10.188l-.305-1.22h2.45l-1.224 1.22h-.921z" fill="url(#paint2_linear_1821_1819)"/><path d="M12.879 18.797L11.637 20h3.715l1.199-1.203h-3.672z" fill="url(#paint3_linear_1821_1819)"/><path d="M12.553 7.702l-.514.52L14.72 18.8l-.487.482h.604l.482-.482-2.765-11.098z" fill="url(#paint4_linear_1821_1819)"/><path d="M14.544 5.87H8.38l.17.631h5.524l.469-.63z" fill="url(#paint5_linear_1821_1819)"/><path d="M14.543 5.871l-.465.625.317 1.227h.613l-.465-1.852z" fill="url(#paint6_linear_1821_1819)"/><path d="M7.945 8.958L6.707 4.043 5.464 5.245l1.233 4.937 1.248-1.224z" fill="url(#paint7_linear_1821_1819)"/><path d="M10.395 8.95h-2.45l-1.254 1.238h2.465l1.239-1.239z" fill="url(#paint8_linear_1821_1819)"/><path d="M10.088 13.888h1.543l-1.233-4.943-1.242 1.242.931 3.7z" fill="url(#paint9_linear_1821_1819)"/><path d="M10.09 13.881l-1.24 1.225.622 2.464 1.25-1.207-.633-2.482z" fill="url(#paint10_linear_1821_1819)"/><path d="M11.016 17.563h-1.54l1.235-1.2h1.516l-1.211 1.2z" fill="url(#paint11_linear_1821_1819)"/><defs><linearGradient id="paint0_linear_1821_1819" x1="6.705" y1="4.041" x2="13.647" y2="14.453" gradientUnits="userSpaceOnUse"><stop stop-color="#FEC73D"/><stop offset="1" stop-color="#FFEC4E"/></linearGradient><linearGradient id="paint1_linear_1821_1819" x1="11.941" y1="16.359" x2="11.941" y2="20.005" gradientUnits="userSpaceOnUse"><stop stop-color="#FD9726"/><stop offset="1" stop-color="#FB7116"/></linearGradient><linearGradient id="paint2_linear_1821_1819" x1="15.315" y1="8.969" x2="14.09" y2="10.188" gradientUnits="userSpaceOnUse"><stop stop-color="#FD9425"/><stop offset="1" stop-color="#FC811C"/></linearGradient><linearGradient id="paint3_linear_1821_1819" x1="12.127" y1="19.398" x2="16.551" y2="19.398" gradientUnits="userSpaceOnUse"><stop stop-color="#FA4702"/><stop offset="1" stop-color="#FB6D13"/></linearGradient><linearGradient id="paint4_linear_1821_1819" x1="13.678" y1="7.702" x2="13.678" y2="19.282" gradientUnits="userSpaceOnUse"><stop stop-color="#FA4400"/><stop offset="1" stop-color="#FB6A12"/></linearGradient><linearGradient id="paint5_linear_1821_1819" x1="14.544" y1="6.186" x2="8.381" y2="6.186" gradientUnits="userSpaceOnUse"><stop stop-color="#FA4400"/><stop offset="1" stop-color="#FB6A12"/></linearGradient><linearGradient id="paint6_linear_1821_1819" x1="14.543" y1="5.871" x2="14.543" y2="7.723" gradientUnits="userSpaceOnUse"><stop stop-color="#FB6A12"/><stop offset="1" stop-color="#FA4D04"/></linearGradient><linearGradient id="paint7_linear_1821_1819" x1="6.704" y1="4.043" x2="6.704" y2="10.182" gradientUnits="userSpaceOnUse"><stop stop-color="#FB6D13"/><stop offset="1" stop-color="#FD9726"/></linearGradient><linearGradient id="paint8_linear_1821_1819" x1="8.543" y1="8.949" x2="8.543" y2="10.188" gradientUnits="userSpaceOnUse"><stop stop-color="#FB5A0A"/><stop offset="1" stop-color="#FB5709"/></linearGradient><linearGradient id="paint9_linear_1821_1819" x1="10.397" y1="8.95" x2="10.397" y2="13.888" gradientUnits="userSpaceOnUse"><stop stop-color="#FD9927"/><stop offset="1" stop-color="#FB7014"/></linearGradient><linearGradient id="paint10_linear_1821_1819" x1="9.783" y1="13.881" x2="9.783" y2="17.57" gradientUnits="userSpaceOnUse"><stop stop-color="#FB7014"/><stop offset="1" stop-color="#FD9525"/></linearGradient><linearGradient id="paint11_linear_1821_1819" x1="10.85" y1="16.363" x2="10.85" y2="17.563" gradientUnits="userSpaceOnUse"><stop stop-color="#FB6510"/><stop offset="1" stop-color="#FA5408"/></linearGradient></defs></svg>