<svg width="24" height="24" fill="none" xmlns="http://www.w3.org/2000/svg"><path opacity=".1" d="M12 24C5.373 24 0 18.627 0 12S5.373 0 12 0s12 5.373 12 12-5.373 12-12 12z" fill="#2C7DF7"/><g clip-path="url(#clip0_324:1089)"><path d="M12.758 19.37c-1.016 0-1.756-.256-2.221-.767-.465-.51-.698-1.06-.698-1.65 0-.215.04-.397.122-.544a.915.915 0 01.332-.35.985.985 0 01.52-.127c.205 0 .378.043.518.128s.252.201.333.349c.08.147.121.329.121.544 0 .261-.059.474-.178.638a.831.831 0 01-.422.324c.141.204.363.348.665.433.303.091.606.136.909.136.421 0 .802-.119 1.143-.357.34-.238.592-.59.754-1.055a4.79 4.79 0 00.243-1.582c0-.641-.089-1.188-.267-1.642-.173-.46-.43-.8-.77-1.021a1.987 1.987 0 00-1.104-.332c-.26 0-.583.114-.973.34l-.713.375v-.374l3.211-4.492H9.839v4.662c0 .385.081.703.244.953.162.25.41.374.746.374.259 0 .508-.09.746-.273a2.71 2.71 0 00.616-.663.248.248 0 01.081-.11.157.157 0 01.105-.043c.06 0 .13.031.211.094.076.09.114.195.114.314-.01.08-.023.16-.04.239-.185.43-.439.76-.763.986a1.827 1.827 0 01-1.07.34c-.963 0-1.628-.198-1.995-.595-.368-.397-.552-.936-.552-1.616V8.344h-2.27v-.868h2.27V5.503l-.519-.545v-.442h1.509l.567.306v2.654l5.871-.017.584.613-3.6 3.777a2.32 2.32 0 01.68-.17c.39 0 .828.13 1.314.391.492.255.87.607 1.136 1.055.265.442.435.868.51 1.276.082.408.122.771.122 1.089 0 .726-.146 1.4-.438 2.025a2.909 2.909 0 01-1.33 1.395 4.153 4.153 0 01-1.93.46z" fill="#2C7DF7"/></g><defs><clipPath id="clip0_324:1089"><path fill="#fff" transform="translate(6 4.5)" d="M0 0h10.5v15H0z"/></clipPath></defs></svg>