<svg width="32" height="32" viewBox="0 0 24 24" fill="none" xmlns="http://www.w3.org/2000/svg"><path d="M5.947 8.403C9.29 5.2 14.71 5.2 18.054 8.403l.553.53a.2.2 0 010 .291l-1.527 1.464a.22.22 0 01-.302 0l-.554-.53c-2.333-2.236-6.114-2.236-8.447 0l-.593.568a.22.22 0 01-.302 0L5.354 9.262a.2.2 0 010-.29V8.97l.593-.568zm14.802 2.583l1.376 1.318a.4.4 0 010 .582l-5.523 5.294a.44.44 0 01-.605 0l-3.921-3.758a.11.11 0 00-.151 0L8.004 18.18a.44.44 0 01-.604 0l-5.524-5.294a.4.4 0 010-.581l1.376-1.32a.22.22 0 01.302 0l4.072 3.904c.042.04.11.04.151 0l3.921-3.758a.44.44 0 01.604 0l3.922 3.758c.041.04.109.04.15 0l4.073-3.903a.22.22 0 01.302 0z" fill="#3B99FC"/></svg>